<svg xmlns="http://www.w3.org/2000/svg" viewBox="0 0 100 200"><path d="M92.4 184.7c-13.2-4-27.9-.9-41.4-.9h-7c2.2-14 3.6-28.1 3.9-42.3.4-15.6-.1-31.2 1.7-46.7C53.1 65.4 61.8 36.9 66 7.7c.1-.3.3-.6.4-1 .5-1.2.4-2.3 0-3.2-.6-5-9.2-4.6-10 1.3V5c-2.1 4.6-6.6 8-10.4 11.2-4.4 3.6-9.1 6.9-14 9.9-9.4 5.9-19.4 11-29.5 15.8-5.8 2.8-.7 11.4 5 8.6 11.8-5.6 23.3-11.5 34-18.7 3.9-2.6 8.1-5.4 11.9-8.6C49 46.5 42.8 69.4 39.8 92.9c-1.9 15.2-1.6 30.4-1.9 45.7-.3 15.1-1.6 30.2-4.1 45.1-9.4 0-18.8.1-28.2 1.2-6.3.7-6.4 10.7 0 10 14.4-1.6 28.9-1.1 43.3-1.1 7.1 0 14.2-.2 21.3-.6 6.6-.4 13.1-.8 19.5 1.2 6.2 1.8 8.8-7.8 2.7-9.7z"/></svg>