<svg xmlns="http://www.w3.org/2000/svg" viewBox="0 0 100 200"><path d="M89.1 185c-12.9-4.5-27-3.9-40.5-3.9-12.1 0-24.3.5-36.2 2.3-.7-9.4-1.6-18.8-1.5-28.2.2-11.3 5.7-20.6 13.5-28.5 7.4-7.5 16.1-13.6 24.2-20.3 7.9-6.7 15.6-13.8 22.2-21.8 13-15.8 22.7-35.4 22-56.3-.3-8.8-1.9-19-10.4-23.6C74 .2 62.3-.5 52.9.3c-21.8 1.9-41 14.3-52.1 33-3.3 5.5 5.4 10.6 8.6 5 9.1-15.3 24.8-26 42.6-28 4.4-.5 9-.5 13.4 0 4.2.5 10.7 1.2 13.9 4.3 3.1 3 3.3 8.7 3.5 12.7.2 5-.2 10-1.2 14.9-4 18.6-15.5 34.2-29 47.2C39.2 102.3 22.3 112 11 126.9c-6.1 8-9.7 17.2-10 27.3-.3 11.6 1.1 23.4 1.9 34.9.2 3.4 3 5.5 6.3 4.8 13-2.5 26.3-3 39.5-3 12.6 0 25.8-.7 37.8 3.5 6.1 2.4 8.7-7.2 2.6-9.4z"/></svg>