<svg xmlns="http://www.w3.org/2000/svg" viewBox="0 0 100 200"><path d="M76 10c.1-6.4-9.9-6.4-10 0-.5 24-.8 48-.9 71.9-.8-.7-1.8-1.1-3.1-1.1-9.5 0-19-.1-28.5-.1-4.6 0-9.2 0-13.8-.1H9.8c.2-2.3.8-4.7 1.2-6.7.6-3.2 1.3-6.5 1.9-9.7 1.3-6.4 2.6-12.9 3.9-19.3C19.4 32 22 19.1 24.7 6.3c1.3-6.3-8.3-9-9.6-2.7-2.7 12.9-5.3 25.7-7.9 38.6-2.5 12.2-5.7 24.5-7 36.9-.5 4.4-.6 9.8 4.5 11.3 2.5.7 5.6.3 8.2.3h9.8c13.1 0 26.2.1 39.3.1 1.3 0 2.3-.4 3.1-1-.1 31.8.1 63.7.6 95.5.1 6.4 10.1 6.4 10 0-.9-58.4-.8-116.9.3-175.3z"/></svg>