<svg xmlns="http://www.w3.org/2000/svg" viewBox="0 0 100 200" overflow="scroll"><path d="M92.8 10c6.4-.2 6.4-10.2 0-10C63.5.9 34.2 1.2 4.9.7 1.5.6-.5 3.9.1 7c5.2 25.5-.4 51.8 6.3 77.1.7 2.8 3.5 4 6.2 3.5 8.7-1.6 17.4-.8 25.9 1.2 7.2 1.7 15.3 3.7 21.6 7.9 6.2 4.1 9.6 12 13.1 18.3 3.9 7 7.4 14.3 9.1 22.2 1.5 7.1 1.1 15.1-2.4 21.6-3.3 6.2-9.4 10-15.7 12.8-15.1 6.7-31.9 9.4-48.3 9.1-6.4-.1-6.4 9.9 0 10 15.7.3 31.4-2.1 46.1-7.5 12.6-4.6 24.2-11.5 28.9-24.8 4.6-13.3 1.1-27.5-4.7-39.8-5.8-12.7-12.8-27.3-26.2-33.2-13.9-6.2-29.7-9.6-44.9-8.1-4.7-21.8-1.2-44.5-4.3-66.5 27.4.3 54.7.1 82-.8z"/></svg>