<svg xmlns="http://www.w3.org/2000/svg" viewBox="0 0 100 200" overflow="scroll"><path d="M90 .6C45.5 22.4 11.2 65.8 2.3 114.8c-4 21.9-5.8 63 21.4 71.7 5.9 1.9 12 1 17.9-.6 7.1-1.9 14.3-3.6 21.3-5.8 11.9-3.8 22.1-10.9 27.5-22.5 5.8-12.6 4.7-27.8-3.3-39.2-8.4-12-22.1-17.2-35.3-21.8-6.1-2.1-8.7 7.5-2.7 9.6 10.1 3.5 21.2 7.2 28.2 15.7s8.8 20.5 4.4 30.6C77.1 163 67.6 168.3 57 171.3c-5.4 1.6-11 2.9-16.4 4.4-5.9 1.6-11.7 3-17.2-.3-10.1-6.1-12.3-20.5-13-31.3-.9-12.7.8-25.4 4.1-37.7 5.4-19.9 14.9-38.6 27.8-54.7C56.5 33.8 74.5 19.3 95 9.2c5.8-2.8.7-11.5-5-8.6z"/></svg>