<svg xmlns="http://www.w3.org/2000/svg" viewBox="0 0 100 200" overflow="scroll"><path d="M91.2 3.8C76.7 5.4 62 5.7 47.5 4.6 33.3 3.5 19.1-.5 4.8.1c-6.4.2-6.4 10.2 0 10 14.3-.6 28.5 3.4 42.7 4.5 9.3.7 18.7.8 28 .4-4.6 5.1-8.2 11.2-10.2 17.9-4.2 14.3-2.4 30.6-2.3 45.3 0 3.9 0 7.9.1 11.8 0 1.5-.2 3.3-.1 4.9-.8.1-2 .6-2.6.7-6.6 1.3-13.6 1.1-20 3.4-13 4.7-17.7 17.6-21.2 29.9-4.8 16.9-6.9 34.6-6.5 52.2.2 6.4 10.2 6.4 10 0-.5-18.9 2.1-37.8 8.1-55.8 2.6-7.7 6-15 14.4-17.4 7.2-2.1 15.2-1.1 22.2-3.9 8-3.2 5.7-13 5.6-20 0-9.7-.2-19.4-.1-29.1 0-8.7.4-17.7 4.5-25.5C81 22.5 86.8 17 93.7 13.1c4-2.3 2.6-9.9-2.5-9.3z"/></svg>