<svg xmlns="http://www.w3.org/2000/svg" viewBox="0 0 100 200" overflow="scroll"><path d="M59.1 95.6c-5.3-3.7-10.3 5-5 8.6 5.1 3.6 6.7 12.2 7.6 18 1.2 7 .9 14.4-.8 21.4-1.5 6.2-4.2 11.3-10.1 14.4-6.1 3.2-13.6 3.8-20.3 2.7-5.9-.9-11.5-3.2-14.3-8.7-3.3-6.5-2.2-14 .8-20.3 5.8-12.4 17.4-21.2 26.1-31.5 17-20.2 30.5-46.3 26.7-73.5-1.6-11.6-7.5-22.2-19.4-25.4C38.8-1.9 24.7 1 14.9 8 4.1 15.7-2.1 28.9.6 42.1 3.3 55 14.2 65 25.8 70.1c5.8 2.6 10.9-6.1 5-8.6-10.5-4.7-21.4-14-20.9-26.6C10.5 21.1 23.2 12 36 10.4c5.9-.7 13.1-.5 17.8 3.6 4.7 4.2 6.1 11.1 6.5 17.1.9 14.6-3.3 28.9-10.2 41.6-6.5 11.9-15.2 22.2-24.6 31.9-9 9.4-18.5 19.6-20.7 33-1.9 11.4 2.2 24 13 29.6 10.5 5.5 24.7 5.3 35.5.7 13.6-5.8 18.2-19.2 19.1-33.2.6-12.9-2-31.1-13.3-39.1z"/></svg>