<svg xmlns="http://www.w3.org/2000/svg" viewBox="0 0 100 200"><path d="M90.4 40.8c.4-7.7-.6-15.7-3.1-23C85.1 11 81.6 2.7 73.9.7c-6.8-1.8-15.3.2-21.9 2-6.9 1.9-13.6 4.8-19.7 8.5C17.8 19.9 6.7 33 .4 48.7c-2.4 6 7.3 8.6 9.6 2.7C15.9 36.9 27.3 25 41.1 17.7c6.9-3.6 14.5-6.1 22.2-7.1C68.1 10 72.2 9.4 75 14c1.9 3.3 3.2 7.1 4.1 10.8 3.9 15.7.2 33.3-10.2 45.8-7.4 8.9-17.2 15.1-27.5 20.4-5.2 1.8-10.3 4.4-14.6 7-5.6 3.3-.7 11.3 5 8.6 4.9-2.3 9.9-4.6 14.7-7.1 1.6-.4 3.3-.7 5.1-.7 7.1-.2 10.9 3.5 13.8 9.6 6.5 14.1 13 29.9 12 45.7-.5 7-2.6 14.4-7.8 19.3C65 177.7 59 180 53 181.5c-12 3-30.6 5.8-37.6-7.4-3-5.7-11.6-.6-8.6 5 6.7 12.8 21.7 15.8 35 14.4C54.5 192.2 69 189.1 78 179c9.9-11.2 10.7-27.5 8-41.5-1.6-8.2-4.5-16.1-7.7-23.8-2.6-6.3-4.8-13.6-9.7-18.5-2.2-2.2-4.5-3.7-7-4.7 3.7-2.6 7.3-5.5 10.5-8.7 11.1-11 17.5-25.5 18.3-41z"/></svg>